 <svg  version="1.0" xmlns="http://www.w3.org/2000/svg"  width="900.000000pt" height="900.000000pt" viewBox="0 0 900.000000 900.000000"  preserveAspectRatio="xMidYMid meet">  <g transform="translate(0.000000,900.000000) scale(0.100000,-0.100000)" fill="#223f5b" stroke="none"> <path d="M4405 8910 c-3 -5 -23 -10 -44 -10 -21 0 -44 -6 -50 -14 -7 -8 -23 -17 -37 -20 -89 -23 -267 -201 -290 -290 -3 -14 -12 -30 -20 -37 -8 -6 -14 -28 -14 -48 0 -25 -9 -47 -29 -70 -26 -31 -34 -35 -92 -39 -35 -2 -68 -8 -73 -13 -6 -5 -28 -9 -50 -9 -23 0 -54 -7 -70 -15 -15 -8 -39 -15 -52 -15 -13 0 -33 -4 -46 -9 -13 -5 -49 -15 -81 -22 -32 -7 -60 -16 -63 -21 -3 -4 -22 -8 -43 -8 -20 0 -46 -7 -57 -15 -10 -8 -29 -15 -41 -15 -12 0 -25 -4 -28 -10 -3 -5 -14 -10 -23 -10 -10 0 -35 -9 -57 -20 -22 -11 -49 -20 -61 -20 -12 0 -27 -6 -33 -14 -6 -7 -37 -21 -69 -31 -31 -10 -64 -24 -73 -31 -8 -8 -20 -14 -26 -14 -6 0 -44 -18 -84 -40 -41 -22 -81 -43 -89 -46 -40 -16 -162 -79 -166 -86 -3 -4 -14 -8 -25 -8 -10 0 -27 -9 -36 -20 -10 -11 -22 -20 -29 -20 -6 0 -19 -9 -29 -20 -10 -11 -41 -32 -69 -46 -81 -41 -97 -50 -132 -83 -18 -17 -37 -31 -42 -31 -5 0 -16 -7 -23 -17 -8 -9 -37 -33 -65 -54 -28 -21 -66 -51 -85 -68 -18 -17 -38 -31 -44 -31 -13 0 -485 -472 -485 -485 0 -6 -20 -32 -45 -59 -24 -26 -47 -57 -50 -67 -4 -11 -10 -19 -15 -19 -4 0 -24 -24 -43 -52 -20 -29 -45 -61 -56 -70 -12 -10 -21 -26 -21 -37 0 -10 -6 -21 -12 -24 -7 -3 -22 -22 -33 -43 -11 -22 -38 -66 -60 -100 -59 -88 -65 -98 -71 -114 -5 -13 -21 -46 -46 -90 -4 -8 -12 -26 -18 -40 -5 -14 -14 -32 -19 -40 -4 -8 -16 -31 -26 -50 -10 -19 -22 -42 -27 -50 -4 -8 -12 -26 -18 -40 -5 -14 -14 -32 -18 -40 -23 -39 -32 -61 -32 -73 0 -7 -9 -29 -20 -50 -11 -20 -20 -43 -20 -51 0 -8 -11 -36 -24 -63 -28 -58 -66 -173 -66 -201 0 -11 -7 -33 -15 -48 -8 -16 -15 -37 -15 -47 0 -9 -4 -25 -9 -35 -5 -9 -15 -44 -21 -77 -7 -33 -16 -70 -21 -83 -5 -13 -9 -38 -9 -56 0 -19 -7 -47 -15 -62 -8 -16 -15 -51 -15 -79 -1 -37 -7 -57 -23 -76 -21 -25 -34 -30 -119 -45 -73 -12 -196 -84 -267 -155 -71 -71 -141 -191 -157 -269 -9 -45 -9 -235 0 -280 16 -78 86 -198 157 -269 70 -70 194 -143 264 -155 83 -14 108 -22 115 -36 4 -8 12 -25 18 -37 7 -13 12 -47 12 -76 0 -31 6 -61 15 -73 8 -10 15 -40 15 -66 0 -26 4 -49 9 -52 5 -3 12 -24 15 -46 3 -22 9 -58 12 -80 3 -22 10 -43 15 -46 5 -3 9 -15 9 -28 0 -12 7 -31 15 -42 8 -10 15 -29 15 -42 0 -32 37 -148 66 -207 13 -28 24 -57 24 -65 0 -9 9 -32 20 -53 11 -20 20 -46 20 -57 0 -11 5 -20 10 -20 6 0 10 -6 10 -14 0 -7 18 -47 40 -87 22 -41 43 -81 46 -89 5 -12 53 -110 83 -170 5 -8 17 -33 27 -54 10 -22 24 -44 29 -50 17 -19 68 -99 89 -141 11 -21 28 -47 38 -57 10 -10 18 -24 18 -32 0 -8 10 -23 23 -33 12 -10 35 -36 50 -58 62 -90 78 -111 100 -131 13 -11 32 -35 43 -53 25 -43 483 -501 500 -501 8 0 32 -20 55 -45 23 -25 50 -45 60 -45 10 0 22 -6 26 -13 4 -8 33 -32 63 -54 30 -22 61 -47 69 -56 7 -10 19 -17 25 -17 6 0 19 -9 29 -20 9 -11 25 -20 36 -20 10 0 24 -7 31 -15 7 -8 17 -15 23 -15 6 0 17 -7 26 -15 9 -9 32 -26 51 -38 51 -33 480 -247 496 -247 7 0 34 -11 60 -25 26 -14 53 -25 61 -25 8 0 31 -9 53 -20 22 -11 48 -20 58 -20 11 0 25 -7 32 -15 7 -8 25 -15 41 -15 15 0 31 -5 34 -10 3 -5 18 -10 33 -10 15 0 52 -9 82 -20 30 -11 64 -20 76 -20 12 0 35 -7 50 -15 16 -8 43 -15 59 -15 17 0 35 -4 40 -9 10 -9 26 -12 166 -28 72 -9 119 -33 119 -63 0 -10 5 -22 10 -25 6 -3 10 -21 10 -38 0 -18 14 -59 30 -90 17 -32 30 -64 30 -71 0 -15 157 -175 185 -187 11 -5 27 -13 35 -18 56 -33 102 -51 127 -51 16 0 34 -5 40 -11 13 -13 208 -6 283 10 30 7 62 18 70 26 8 7 33 21 55 31 50 23 187 161 210 211 10 21 23 45 30 53 12 13 19 40 42 152 3 15 10 31 17 36 18 15 87 28 246 48 25 3 49 10 55 15 5 5 25 9 45 9 20 0 45 7 56 15 10 8 30 15 44 15 14 0 50 9 80 20 30 11 67 20 82 20 15 0 30 5 33 10 3 6 16 10 29 10 12 0 31 7 42 15 10 8 28 15 38 15 10 0 40 10 65 21 25 12 57 26 71 31 14 6 38 16 53 24 16 8 35 14 42 14 12 0 43 14 95 41 8 5 49 25 90 45 41 20 82 40 90 45 45 26 154 79 161 79 7 0 35 19 114 78 31 23 66 42 77 42 7 1 29 14 48 30 19 17 40 30 47 30 7 0 13 4 13 10 0 5 19 22 43 37 23 16 50 38 60 50 10 13 25 23 34 23 8 0 34 20 57 45 24 25 50 45 58 45 17 0 508 492 508 509 0 7 15 27 33 45 48 49 107 123 107 135 0 5 16 27 35 48 19 21 35 42 35 47 0 4 13 25 28 45 16 20 34 50 41 68 7 17 19 34 27 37 8 3 14 12 14 21 0 8 8 23 18 33 23 23 262 499 262 522 0 10 6 23 14 29 8 7 17 27 20 45 4 19 18 55 31 81 14 25 25 55 25 66 0 10 4 27 9 37 5 9 14 37 21 62 6 25 16 59 21 76 5 17 9 37 9 46 0 9 7 21 15 28 9 7 15 29 15 51 0 21 4 40 9 43 5 3 11 23 15 43 3 21 10 65 16 98 6 33 14 85 17 115 3 30 11 64 19 75 8 10 14 30 14 43 0 25 48 52 94 52 14 0 28 5 31 10 3 6 14 10 24 10 10 0 24 6 30 14 7 8 25 17 41 21 50 11 230 202 230 245 0 8 7 21 15 30 25 28 39 109 39 230 0 121 -14 202 -39 230 -8 9 -15 22 -15 30 0 43 -180 234 -230 245 -16 4 -34 13 -41 21 -6 8 -20 14 -30 14 -10 0 -21 5 -24 10 -3 6 -17 10 -31 10 -36 0 -94 27 -94 43 0 8 -6 20 -14 26 -8 7 -16 38 -19 74 -3 34 -10 85 -15 112 -6 28 -14 69 -18 93 -4 23 -11 45 -15 48 -5 3 -9 21 -9 41 0 19 -6 47 -14 61 -14 26 -22 54 -47 157 -7 28 -16 54 -20 59 -5 6 -9 22 -9 37 0 15 -6 32 -14 38 -7 6 -21 37 -31 69 -10 31 -24 64 -31 73 -8 8 -14 24 -14 34 0 16 -43 116 -71 165 -5 8 -25 49 -45 90 -20 41 -40 82 -45 90 -5 8 -25 48 -46 89 -20 40 -43 75 -50 78 -7 3 -13 14 -13 24 0 11 -9 27 -20 36 -11 10 -20 22 -20 26 0 5 -18 36 -40 69 -22 33 -40 64 -40 68 0 5 -13 20 -30 33 -16 14 -30 33 -30 41 0 9 -9 24 -21 34 -11 9 -37 41 -56 70 -19 29 -43 58 -52 65 -9 6 -25 26 -35 42 -29 44 -446 457 -499 494 -25 17 -52 39 -59 49 -7 9 -32 30 -55 45 -24 15 -43 31 -43 35 0 4 -13 13 -28 20 -16 7 -46 28 -68 47 -21 19 -44 35 -50 35 -6 0 -17 6 -23 14 -7 8 -32 24 -57 35 -24 12 -44 26 -44 31 0 6 -6 10 -13 10 -7 0 -28 13 -47 30 -19 16 -41 29 -48 30 -7 0 -30 11 -51 25 -22 13 -51 27 -65 31 -14 3 -30 12 -37 20 -6 8 -18 14 -25 14 -8 0 -32 11 -53 25 -22 13 -51 27 -65 31 -14 3 -30 12 -37 20 -6 8 -18 14 -25 14 -7 0 -28 9 -46 20 -18 11 -39 20 -47 20 -7 0 -35 11 -63 25 -27 14 -57 25 -67 25 -9 0 -22 5 -29 12 -13 13 -117 48 -143 48 -9 0 -22 7 -29 15 -7 8 -28 15 -46 15 -19 0 -42 4 -52 9 -9 5 -37 14 -62 21 -25 6 -59 16 -76 21 -17 5 -41 9 -55 9 -13 0 -33 7 -43 15 -11 8 -41 15 -67 15 -26 0 -51 5 -54 10 -3 6 -28 10 -54 10 -73 0 -137 26 -156 62 -8 17 -15 42 -15 56 0 21 -20 68 -51 122 -5 8 -13 24 -18 35 -12 28 -172 185 -187 185 -7 0 -39 14 -71 30 -31 17 -72 30 -90 30 -17 0 -35 5 -38 10 -3 6 -50 10 -105 10 -55 0 -102 -4 -105 -10z m-453 -738 c5 -18 20 -52 33 -77 14 -24 25 -50 25 -58 0 -16 156 -176 185 -188 11 -5 27 -13 35 -18 56 -33 102 -51 127 -51 16 0 34 -5 40 -11 13 -13 208 -6 283 10 30 7 62 18 70 26 8 7 33 21 55 31 50 23 187 161 210 211 10 21 23 45 30 53 7 8 16 31 20 50 4 19 12 41 17 48 14 17 79 15 102 -3 11 -8 41 -15 67 -15 26 0 51 -4 54 -10 3 -5 22 -10 42 -10 39 0 112 -18 128 -32 5 -4 26 -8 46 -8 20 0 42 -7 49 -15 7 -8 23 -15 36 -15 14 0 32 -4 42 -9 23 -13 147 -51 165 -51 8 0 20 -7 27 -15 7 -8 23 -15 35 -15 12 0 47 -13 78 -30 31 -16 63 -30 70 -30 12 0 65 -24 107 -49 8 -5 50 -25 92 -45 43 -20 80 -41 83 -46 4 -6 14 -10 24 -10 10 0 35 -13 56 -30 21 -16 42 -30 47 -30 6 0 30 -13 55 -30 24 -16 47 -30 50 -30 3 0 22 -12 42 -27 20 -16 44 -32 53 -38 51 -30 155 -106 170 -124 10 -12 25 -21 33 -21 8 0 33 -20 56 -45 23 -25 48 -45 56 -45 14 0 473 -456 473 -470 0 -5 23 -35 50 -66 28 -31 50 -63 50 -71 0 -7 4 -13 10 -13 5 0 22 -19 37 -42 15 -24 30 -45 33 -48 11 -11 84 -124 96 -150 4 -8 18 -28 31 -44 13 -16 33 -47 45 -70 11 -22 27 -45 34 -49 8 -4 14 -16 14 -26 0 -10 6 -24 14 -30 8 -7 17 -23 20 -37 4 -14 18 -43 31 -65 14 -21 25 -45 25 -53 0 -7 7 -19 15 -26 8 -7 15 -18 15 -24 0 -6 9 -28 20 -49 11 -20 20 -46 20 -57 0 -11 5 -20 10 -20 6 0 10 -7 10 -16 0 -9 8 -31 19 -48 10 -17 26 -56 35 -86 10 -30 21 -63 27 -72 5 -10 9 -28 9 -41 0 -13 5 -28 12 -35 12 -12 21 -40 48 -147 7 -27 16 -58 21 -67 5 -10 9 -28 9 -41 0 -12 6 -31 14 -42 7 -11 16 -40 19 -65 3 -25 11 -72 17 -105 18 -87 17 -126 0 -135 -8 -5 -55 -28 -103 -51 -72 -35 -102 -58 -160 -119 -79 -82 -147 -202 -147 -257 0 -17 -4 -35 -10 -38 -6 -3 -10 -50 -10 -105 0 -55 4 -102 10 -105 6 -3 10 -21 10 -38 0 -55 68 -175 147 -257 58 -61 88 -84 160 -119 48 -23 95 -46 103 -51 18 -9 18 -67 1 -155 -7 -33 -15 -83 -18 -112 -2 -29 -11 -57 -19 -64 -8 -6 -14 -24 -14 -40 0 -15 -4 -31 -10 -34 -6 -3 -10 -17 -10 -31 0 -28 -35 -144 -57 -186 -7 -14 -13 -33 -13 -42 0 -9 -4 -24 -9 -34 -5 -9 -19 -50 -32 -90 -12 -40 -28 -77 -36 -83 -7 -7 -13 -20 -13 -30 0 -10 -4 -21 -10 -24 -5 -3 -10 -13 -10 -22 0 -23 -169 -359 -190 -378 -10 -9 -21 -28 -25 -43 -3 -14 -18 -42 -33 -61 -15 -20 -31 -44 -37 -53 -5 -10 -34 -52 -62 -93 -29 -42 -53 -79 -53 -84 0 -4 -10 -16 -21 -27 -12 -10 -32 -35 -44 -54 -13 -19 -40 -53 -59 -74 -20 -22 -36 -43 -36 -48 0 -11 -457 -468 -468 -468 -5 0 -33 -23 -62 -50 -29 -28 -59 -50 -66 -50 -7 0 -24 -13 -37 -30 -14 -16 -33 -30 -41 -30 -9 0 -24 -9 -33 -20 -10 -11 -22 -20 -28 -20 -7 0 -22 -11 -35 -25 -13 -14 -29 -25 -35 -25 -12 0 -69 -40 -107 -74 -10 -9 -23 -16 -29 -16 -11 0 -79 -38 -89 -50 -12 -13 -60 -40 -73 -40 -8 0 -20 -6 -26 -14 -7 -8 -23 -17 -37 -20 -14 -4 -43 -18 -65 -31 -21 -14 -45 -25 -53 -25 -7 0 -19 -6 -25 -14 -6 -7 -37 -21 -69 -31 -31 -10 -64 -24 -73 -31 -8 -8 -22 -14 -30 -14 -9 0 -24 -7 -35 -15 -10 -8 -29 -15 -41 -15 -12 0 -24 -4 -27 -8 -3 -5 -30 -15 -61 -22 -31 -7 -58 -17 -61 -22 -3 -4 -18 -8 -33 -8 -15 0 -36 -7 -47 -15 -10 -8 -29 -15 -41 -15 -12 0 -24 -4 -27 -9 -3 -5 -23 -11 -43 -14 -71 -11 -103 -19 -103 -28 0 -5 -24 -9 -54 -9 -34 0 -58 -5 -65 -14 -7 -8 -35 -17 -64 -20 -29 -3 -73 -8 -98 -12 l-46 -6 -32 51 c-17 28 -31 57 -31 65 0 7 -7 19 -15 26 -8 7 -15 18 -15 25 0 16 -170 185 -186 185 -7 0 -39 13 -71 30 -31 16 -72 30 -90 30 -17 0 -35 4 -38 10 -8 13 -202 13 -210 0 -3 -5 -23 -10 -44 -10 -21 0 -44 -6 -50 -14 -7 -8 -23 -17 -37 -20 -73 -19 -231 -165 -272 -252 -13 -27 -27 -56 -33 -64 -5 -8 -13 -25 -19 -37 -7 -18 -18 -23 -44 -23 -19 0 -38 5 -41 10 -3 6 -27 10 -53 10 -26 0 -56 7 -66 15 -11 8 -41 15 -67 15 -26 0 -50 4 -53 8 -3 5 -31 14 -63 21 -32 7 -68 17 -81 22 -13 5 -31 9 -41 9 -10 0 -24 7 -31 15 -7 8 -24 15 -39 15 -15 0 -31 4 -36 8 -6 5 -46 19 -90 31 -44 13 -87 27 -95 32 -8 5 -22 12 -30 15 -8 3 -31 14 -51 25 -20 10 -42 19 -49 19 -16 0 -314 148 -357 177 -19 13 -38 23 -42 23 -5 0 -14 7 -21 15 -7 8 -21 15 -32 15 -10 0 -21 6 -24 14 -3 8 -19 20 -35 26 -16 7 -29 16 -29 21 0 5 -16 15 -35 23 -19 8 -35 20 -35 25 0 6 -6 11 -13 11 -7 0 -28 13 -47 30 -19 16 -43 29 -52 30 -9 0 -21 6 -25 13 -4 8 -34 32 -65 55 -31 23 -61 48 -65 55 -4 7 -21 21 -38 31 -42 27 -449 435 -481 482 -14 21 -37 50 -50 64 -28 28 -74 89 -105 138 -12 17 -25 32 -30 32 -5 0 -9 9 -9 20 0 11 -9 28 -20 37 -11 10 -20 22 -20 28 0 7 -11 22 -25 35 -14 13 -25 29 -25 35 0 7 -13 29 -30 50 -16 21 -30 44 -30 52 0 8 -13 31 -30 51 -16 20 -38 57 -50 82 -11 25 -25 52 -29 60 -5 8 -26 50 -47 93 -21 43 -42 81 -46 83 -4 3 -8 15 -8 27 0 12 -16 54 -35 92 -19 39 -35 78 -35 87 0 9 -4 20 -10 23 -5 3 -10 19 -10 34 0 16 -7 34 -15 41 -8 7 -15 19 -15 27 0 18 -38 142 -51 165 -5 10 -9 33 -9 51 0 18 -7 42 -15 53 -8 10 -15 28 -15 39 0 12 -4 25 -9 30 -5 6 -12 30 -15 55 -14 117 -18 136 -27 155 -6 12 -9 45 -7 75 l3 54 78 39 c108 55 201 150 255 259 50 102 55 125 55 258 0 133 -5 156 -55 258 -54 109 -147 204 -255 259 l-78 39 -3 44 c-2 24 1 53 7 64 5 12 12 39 15 61 13 90 17 112 28 150 6 22 17 54 24 72 8 17 14 45 14 61 0 17 4 33 8 36 5 3 15 30 22 61 7 31 17 58 22 61 4 3 8 15 8 27 0 12 7 31 15 41 8 11 15 32 15 47 0 15 5 31 10 34 6 3 10 14 10 23 0 9 16 48 35 85 19 38 35 76 35 86 0 10 7 24 15 31 8 7 15 18 15 25 0 18 133 278 159 311 11 15 21 32 21 38 0 7 13 27 30 46 16 19 29 43 30 53 0 10 6 20 14 23 8 3 20 19 26 35 7 16 16 29 21 29 5 0 15 16 23 35 8 19 20 35 25 35 6 0 11 5 11 12 0 6 20 38 45 69 25 32 45 62 45 67 0 5 11 17 24 25 13 9 34 33 47 53 30 50 459 479 486 488 12 4 37 25 55 47 18 21 39 39 47 39 8 0 27 12 42 26 15 15 36 32 47 38 11 6 59 38 106 71 48 33 95 65 104 70 9 6 36 23 60 38 24 15 54 32 67 37 14 5 25 14 25 19 0 5 17 16 38 25 20 9 44 20 52 25 8 5 49 26 90 46 91 45 97 47 138 68 19 9 41 17 50 17 9 0 26 7 36 15 11 8 27 15 37 15 9 0 22 7 29 15 7 8 21 15 32 15 11 0 32 6 46 14 15 8 61 24 102 36 41 12 83 26 92 31 10 5 26 9 36 9 10 0 27 7 38 15 10 8 31 15 45 15 14 0 52 9 84 20 32 11 73 20 91 20 18 0 36 5 39 10 3 6 30 10 59 10 36 0 58 5 66 16 9 9 26 14 49 12 30 -3 36 -7 43 -36z"/> <path d="M2460 6971 c-8 -5 -36 -12 -62 -15 -26 -4 -50 -12 -54 -17 -3 -5 -26 -19 -52 -31 -57 -27 -191 -159 -216 -213 -10 -22 -24 -47 -31 -55 -8 -8 -19 -40 -26 -70 -16 -75 -23 -270 -10 -283 6 -6 11 -24 11 -40 0 -25 18 -71 51 -127 5 -8 13 -24 18 -35 12 -28 172 -185 187 -185 7 0 39 -13 71 -30 31 -16 72 -30 90 -30 17 0 35 -4 38 -10 3 -6 50 -10 105 -10 55 0 102 4 105 10 3 6 23 10 44 10 21 0 44 6 50 14 7 8 23 17 37 20 89 23 267 201 290 290 3 14 12 30 20 37 8 6 14 29 14 50 0 21 5 41 10 44 6 3 10 50 10 105 0 55 -4 102 -10 105 -5 3 -10 22 -10 41 0 20 -13 58 -30 89 -16 30 -30 60 -30 68 0 16 -156 176 -185 188 -11 5 -27 13 -35 18 -57 33 -102 51 -128 51 -17 0 -34 5 -37 10 -8 12 -214 13 -235 1z"/> <path d="M6285 6971 c-3 -6 -20 -11 -37 -11 -26 0 -71 -18 -128 -51 -8 -5 -24 -13 -35 -18 -28 -12 -185 -172 -185 -187 0 -7 -13 -39 -30 -71 -16 -31 -30 -72 -30 -90 0 -17 -4 -35 -10 -38 -6 -3 -10 -50 -10 -105 0 -55 4 -102 10 -105 6 -3 10 -23 10 -44 0 -21 6 -44 14 -50 8 -7 17 -23 20 -37 23 -89 201 -267 290 -290 14 -3 30 -12 37 -20 6 -8 29 -14 50 -14 21 0 41 -4 44 -10 3 -6 50 -10 105 -10 55 0 102 4 105 10 3 6 21 10 38 10 18 0 59 14 90 30 32 17 64 30 71 30 15 0 175 157 187 185 5 11 13 27 18 35 33 56 51 102 51 127 0 16 5 34 11 40 13 13 6 208 -10 283 -7 30 -18 62 -26 70 -7 8 -21 32 -30 54 -23 49 -162 188 -211 211 -22 9 -46 23 -54 30 -24 21 -117 38 -237 42 -72 3 -113 0 -118 -6z"/> <path d="M2475 3150 c-3 -5 -21 -10 -38 -10 -18 0 -59 -13 -90 -30 -32 -16 -64 -30 -71 -30 -15 0 -175 -157 -187 -185 -5 -11 -13 -27 -18 -35 -33 -56 -51 -102 -51 -127 0 -16 -5 -34 -11 -40 -13 -13 -6 -208 10 -283 7 -30 18 -62 26 -70 7 -8 21 -32 30 -54 23 -49 162 -188 211 -211 22 -9 46 -23 54 -30 8 -8 40 -19 70 -26 75 -16 270 -23 283 -10 6 6 24 11 40 11 25 0 71 18 127 51 8 5 24 13 35 18 28 12 185 172 185 187 0 7 14 39 30 71 17 31 30 72 30 90 0 17 5 35 10 38 6 3 10 50 10 105 0 55 -4 102 -10 105 -5 3 -10 23 -10 44 0 21 -6 44 -14 50 -8 7 -17 23 -20 37 -23 89 -201 267 -290 290 -14 3 -30 12 -37 20 -6 8 -29 14 -50 14 -21 0 -41 5 -44 10 -3 6 -50 10 -105 10 -55 0 -102 -4 -105 -10z"/> <path d="M6295 3150 c-3 -5 -23 -10 -44 -10 -21 0 -44 -6 -50 -14 -7 -8 -23 -17 -37 -20 -89 -23 -267 -201 -290 -290 -3 -14 -12 -30 -20 -37 -8 -6 -14 -29 -14 -50 0 -21 -4 -41 -10 -44 -6 -3 -10 -50 -10 -105 0 -55 4 -102 10 -105 6 -3 10 -22 10 -41 0 -20 13 -58 30 -89 17 -30 30 -60 30 -68 0 -16 156 -176 185 -188 11 -5 27 -13 35 -18 56 -33 102 -51 127 -51 16 0 34 -5 40 -11 13 -13 208 -6 283 10 30 7 62 18 70 26 8 7 32 21 54 30 49 23 188 162 211 211 9 22 23 46 30 54 8 8 19 40 26 70 16 75 23 270 10 283 -6 6 -11 24 -11 40 0 25 -18 71 -51 127 -5 8 -13 24 -18 35 -12 29 -172 185 -188 185 -8 0 -38 14 -68 30 -31 17 -69 30 -89 30 -19 0 -38 5 -41 10 -3 6 -50 10 -105 10 -55 0 -102 -4 -105 -10z"/> </g> </svg> 