<?xml version="1.0" standalone="no"?>
<!DOCTYPE svg PUBLIC "-//W3C//DTD SVG 20010904//EN"
 "http://www.w3.org/TR/2001/REC-SVG-20010904/DTD/svg10.dtd">
<svg version="1.0" xmlns="http://www.w3.org/2000/svg"
 width="1200.000000pt" height="1200.000000pt" viewBox="0 0 1200.000000 1200.000000"
 preserveAspectRatio="xMidYMid meet">
<metadata>
Created by potrace 1.10, written by Peter Selinger 2001-2011
</metadata>
<g transform="translate(0.000000,1200.000000) scale(0.100000,-0.100000)"
fill="#ffa500" stroke="none">
<path d="M5720 7270 c-276 -59 -596 -269 -753 -494 -78 -112 -127 -201 -167
-307 -67 -174 -72 -211 -67 -499 4 -271 9 -308 57 -435 49 -127 68 -163 145
-280 108 -164 167 -224 328 -339 65 -45 180 -113 207 -121 14 -4 43 -15 65
-25 79 -34 96 -40 176 -60 70 -17 114 -20 309 -20 265 0 321 9 485 80 22 10
51 21 65 25 26 8 150 81 210 124 145 105 239 203 342 361 61 92 81 133 128
255 48 128 53 164 57 438 4 235 2 266 -16 339 -50 198 -162 406 -305 570 -154
176 -455 349 -685 392 -122 23 -466 21 -581 -4z m574 -95 c4 -11 21 -15 60
-15 39 0 55 -4 60 -15 3 -8 16 -15 30 -15 13 0 26 -7 30 -15 3 -10 19 -15 45
-15 25 0 41 -5 45 -15 3 -8 16 -15 28 -15 13 -1 34 -14 48 -30 13 -17 33 -30
45 -30 11 -1 31 -14 45 -30 13 -17 32 -30 41 -30 23 0 209 -186 209 -209 0 -9
13 -28 30 -41 16 -14 29 -34 30 -45 0 -12 13 -32 30 -45 16 -14 29 -35 30 -48
0 -12 7 -25 15 -28 10 -4 15 -20 15 -45 0 -26 5 -42 15 -45 8 -4 15 -17 15
-30 0 -14 7 -27 15 -30 11 -5 15 -21 15 -60 0 -39 4 -56 15 -60 13 -5 15 -45
15 -274 0 -229 -2 -269 -15 -274 -11 -4 -15 -21 -15 -60 0 -39 -4 -55 -15 -60
-8 -3 -15 -16 -15 -30 0 -13 -7 -26 -15 -30 -10 -3 -15 -19 -15 -45 0 -25 -5
-41 -15 -45 -8 -3 -15 -16 -15 -28 -1 -13 -14 -34 -30 -48 -17 -13 -30 -33
-30 -45 -1 -11 -14 -31 -30 -45 -17 -13 -30 -32 -30 -41 0 -23 -186 -209 -209
-209 -9 0 -28 -13 -41 -30 -14 -16 -34 -29 -45 -30 -12 0 -32 -13 -45 -30 -14
-16 -35 -29 -48 -30 -12 0 -25 -7 -28 -15 -4 -10 -20 -15 -45 -15 -26 0 -42
-5 -45 -15 -4 -8 -17 -15 -30 -15 -14 0 -27 -7 -30 -15 -5 -11 -21 -15 -60
-15 -39 0 -56 -4 -60 -15 -5 -13 -45 -15 -274 -15 -229 0 -269 2 -274 15 -4
11 -21 15 -60 15 -39 0 -55 4 -60 15 -3 8 -16 15 -30 15 -13 0 -26 7 -30 15
-3 10 -19 15 -45 15 -25 0 -41 5 -45 15 -3 8 -16 15 -28 15 -13 1 -34 14 -48
30 -13 17 -33 30 -45 30 -11 1 -31 14 -45 30 -13 17 -32 30 -41 30 -10 0 -61
43 -113 96 -53 52 -96 103 -96 113 0 9 -13 28 -30 41 -16 14 -29 34 -30 45 0
12 -13 32 -30 45 -16 14 -29 35 -30 48 0 12 -7 25 -15 28 -10 4 -15 20 -15 45
0 26 -5 42 -15 45 -8 4 -15 17 -15 30 0 14 -7 27 -15 30 -11 5 -15 21 -15 60
0 39 -4 56 -15 60 -13 5 -15 45 -15 274 0 229 2 269 15 274 11 4 15 21 15 60
0 39 4 55 15 60 8 3 15 16 15 30 0 13 7 26 15 30 10 3 15 19 15 45 0 25 5 41
15 45 8 3 15 16 15 28 1 13 14 34 30 48 17 13 30 33 30 45 1 11 14 31 30 45
17 13 30 32 30 41 0 23 186 209 209 209 9 0 28 13 41 30 14 16 34 29 45 30 12
0 32 13 45 30 14 16 35 29 48 30 12 0 25 7 28 15 4 10 20 15 45 15 26 0 42 5
45 15 4 8 17 15 30 15 14 0 27 7 30 15 5 11 21 15 60 15 39 0 56 4 60 15 5 13
45 15 274 15 229 0 269 -2 274 -15z"/>
</g>
</svg>
