 <svg  version="1.0" xmlns="http://www.w3.org/2000/svg"  width="900.000000pt" height="900.000000pt" viewBox="0 0 900.000000 900.000000"  preserveAspectRatio="xMidYMid meet">  <g transform="translate(0.000000,900.000000) scale(0.100000,-0.100000)" fill="#3e60bc" stroke="none"> <path d="M4449 8631 c-46 -9 -104 -54 -137 -106 -23 -34 -26 -51 -26 -120 0 -70 3 -85 26 -122 58 -90 150 -126 261 -102 49 10 68 20 100 53 103 105 103 237 1 341 -54 55 -131 74 -225 56z"/> <path d="M1312 7818 c-66 -15 -134 -88 -151 -163 -21 -91 -1 -164 59 -225 40 -39 58 -49 107 -59 95 -20 160 -3 223 59 62 63 79 128 59 223 -10 49 -20 67 -60 107 -64 64 -134 81 -237 58z"/> <path d="M7522 7818 c-30 -7 -56 -23 -91 -58 -41 -41 -51 -59 -61 -106 -38 -184 100 -322 284 -284 47 10 65 20 106 60 62 63 79 128 59 223 -17 81 -81 147 -158 165 -60 14 -79 14 -139 0z"/> <path d="M2532 6448 c-17 -17 -17 -3899 0 -3916 17 -17 3899 -17 3916 0 17 17 17 3899 0 3916 -17 17 -3899 17 -3916 0z m3782 -134 c14 -14 16 -193 16 -1824 0 -1631 -2 -1810 -16 -1824 -14 -14 -193 -16 -1824 -16 -1631 0 -1810 2 -1824 16 -14 14 -16 193 -16 1824 0 1631 2 1810 16 1824 14 14 193 16 1824 16 1631 0 1810 -2 1824 -16z"/> <path d="M550 4720 c-81 -17 -129 -52 -175 -125 -27 -41 -28 -174 -2 -202 9 -11 17 -24 17 -30 0 -14 59 -66 95 -82 85 -39 172 -31 247 24 117 85 119 283 5 366 -65 48 -123 63 -187 49z"/> <path d="M8335 4719 c-60 -14 -134 -75 -156 -129 -41 -104 -14 -221 67 -282 51 -40 126 -62 172 -52 132 28 206 112 206 234 0 70 -17 115 -63 163 -50 54 -151 83 -226 66z"/> <path d="M1312 1608 c-66 -15 -134 -88 -151 -163 -21 -91 -1 -164 59 -225 40 -39 58 -49 108 -60 182 -38 320 100 282 284 -10 47 -20 65 -60 105 -65 65 -134 82 -238 59z"/> <path d="M7527 1609 c-115 -27 -185 -152 -157 -283 10 -47 20 -65 60 -106 63 -62 128 -79 223 -59 49 10 67 20 107 60 62 62 79 128 59 222 -17 81 -81 147 -158 165 -59 14 -80 14 -134 1z"/> <path d="M4470 803 c-57 -9 -71 -15 -105 -45 -56 -49 -79 -101 -79 -183 -1 -121 64 -203 179 -226 82 -16 164 6 213 59 98 105 96 234 -6 338 -32 33 -51 43 -97 52 -32 7 -63 11 -69 11 -6 -1 -22 -3 -36 -6z"/> </g> </svg> 